<svg width="40" height="41" viewBox="0 0 40 41" fill="none" xmlns="http://www.w3.org/2000/svg">
<circle cx="20" cy="20.7456" r="20" fill="#F4F6F6"/>
<g clip-path="url(#clip0_309_151)">
<path d="M24.4449 20.1213L17.3247 13.0012C17.16 12.8364 16.9402 12.7456 16.7058 12.7456C16.4714 12.7456 16.2516 12.8364 16.0869 13.0012L15.5625 13.5254C15.2213 13.867 15.2213 14.4222 15.5625 14.7633L21.5415 20.7423L15.5559 26.7279C15.3912 26.8927 15.3003 27.1124 15.3003 27.3467C15.3003 27.5813 15.3912 27.801 15.5559 27.9659L16.0803 28.49C16.2451 28.6548 16.4648 28.7456 16.6992 28.7456C16.9336 28.7456 17.1534 28.6548 17.3181 28.49L24.4449 21.3634C24.61 21.1981 24.7007 20.9773 24.7001 20.7427C24.7007 20.5071 24.61 20.2865 24.4449 20.1213Z" fill="#666666"/>
</g>
<defs>
<clipPath id="clip0_309_151">
<rect width="16" height="16" fill="white" transform="translate(12 12.7456)"/>
</clipPath>
</defs>
</svg>
