<svg width="25" height="25" viewBox="0 0 25 25" fill="none" xmlns="http://www.w3.org/2000/svg">
<g clip-path="url(#clip0_309_258)">
<path d="M2.4575 13.5139H22.4741C23.2991 13.5139 23.9678 12.8451 23.9678 12.0201C23.9678 11.1951 23.2991 10.5264 22.4741 10.5264H2.4575C1.6325 10.5264 0.96373 11.1951 0.96373 12.0201C0.963683 12.8451 1.6325 13.5139 2.4575 13.5139Z" fill="#666666"/>
<path d="M13.9596 7.30438C13.5236 7.30438 13.1689 7.65904 13.1689 8.09502V9.12004H19.288V8.09502C19.288 7.65904 18.9333 7.30438 18.4973 7.30438H13.9596Z" fill="#666666"/>
<path d="M4.23695 8.09508C4.23695 6.88369 5.22245 5.89819 6.43384 5.89819H10.9716C11.548 5.89819 12.073 6.12169 12.4653 6.48619C12.8576 6.12169 13.3826 5.89819 13.9591 5.89819H18.4968C19.7082 5.89819 20.6937 6.88369 20.6937 8.09508V9.12009H22.976V4.27697C22.976 3.45197 22.3072 2.7832 21.4823 2.7832H3.44846C2.62346 2.7832 1.9547 3.45197 1.9547 4.27697V9.12009H4.23695V8.09508Z" fill="#666666"/>
<path d="M6.43438 7.30438C5.99839 7.30438 5.64374 7.65904 5.64374 8.09502V9.12004H11.7628V8.09502C11.7628 7.65904 11.4081 7.30438 10.9721 7.30438H6.43438Z" fill="#666666"/>
<path d="M0.46582 14.9201V21.3897H1.87207V18.8257H23.0596V21.3897H24.4658V14.9201H0.46582Z" fill="#666666"/>
</g>
<defs>
<clipPath id="clip0_309_258">
<rect width="24" height="24" fill="white" transform="translate(0.46582 0.0864258)"/>
</clipPath>
</defs>
</svg>
