<svg width="25" height="25" viewBox="0 0 25 25" fill="none" xmlns="http://www.w3.org/2000/svg">
<g clip-path="url(#clip0_309_236)">
<path d="M20.0871 10.3104C20.368 10.3104 20.5957 10.0827 20.5957 9.80181V8.17036C20.5957 7.88946 20.368 7.66177 20.0871 7.66177L19.3632 7.66618L16.988 10.3104H20.0871Z" fill="#666666"/>
<path d="M4.84229 10.3102H7.96581L5.54936 7.66168H4.84229C4.5614 7.66168 4.33371 7.88937 4.33371 8.17027V9.80159C4.33371 10.0825 4.5614 10.3102 4.84229 10.3102Z" fill="#666666"/>
<path d="M12.7565 12.933L17.4697 7.66177H7.46007L12.2507 12.935C12.3865 13.0845 12.6218 13.0836 12.7565 12.933Z" fill="#666666"/>
<path d="M14.0833 20.351H13.2077V14.4323C12.9977 14.5536 12.7577 14.6198 12.5101 14.6208C12.5083 14.6208 12.5064 14.6208 12.5046 14.6208C12.2552 14.6208 12.0131 14.5545 11.8014 14.4323V20.351H10.8461C10.4578 20.351 10.143 20.6658 10.143 21.0541C10.143 21.4425 10.4578 21.7573 10.8461 21.7573H14.0834C14.4717 21.7573 14.7865 21.4425 14.7865 21.0541C14.7865 20.6658 14.4717 20.351 14.0833 20.351Z" fill="#666666"/>
<path d="M6.39553 12.2667H1.87219V3.93151C1.87219 3.54317 1.55735 3.22833 1.16901 3.22833C0.780671 3.22833 0.465836 3.54317 0.465836 3.93151V21.1104C0.465836 21.4988 0.780671 21.8136 1.16901 21.8136C1.55735 21.8136 1.87219 21.4988 1.87219 21.1104V15.8581H6.98488V21.1104C6.98488 21.4988 7.29972 21.8136 7.68806 21.8136C8.0764 21.8136 8.39124 21.4988 8.39124 21.1104V14.2624C8.39124 13.1619 7.49595 12.2667 6.39553 12.2667Z" fill="#666666"/>
<path d="M23.7624 3.22833C23.3741 3.22833 23.0593 3.54317 23.0593 3.93151V12.2667H18.6407C17.5402 12.2667 16.645 13.162 16.645 14.2624V21.1104C16.645 21.4988 16.9598 21.8136 17.3482 21.8136C17.7365 21.8136 18.0514 21.4988 18.0514 21.1104V15.8569H23.0593V21.1104C23.0593 21.4988 23.3741 21.8136 23.7625 21.8136C24.1508 21.8136 24.4656 21.4988 24.4656 21.1104V3.93151C24.4656 3.54317 24.1508 3.22833 23.7624 3.22833Z" fill="#666666"/>
</g>
<defs>
<clipPath id="clip0_309_236">
<rect width="24" height="24" fill="white" transform="translate(0.46582 0.520996)"/>
</clipPath>
</defs>
</svg>
