<svg width="25" height="25" viewBox="0 0 25 25" fill="none" xmlns="http://www.w3.org/2000/svg">
<g clip-path="url(#clip0_309_270)">
<path d="M24.0908 8.05127H0.84082C0.633362 8.05127 0.46582 7.88373 0.46582 7.67627V6.17554C0.46582 5.96808 0.633362 5.80054 0.84082 5.80054H24.0908C24.2983 5.80054 24.4658 5.96808 24.4658 6.17554V7.67627C24.4658 7.88373 24.2983 8.05127 24.0908 8.05127ZM1.21582 7.30127H23.7158V6.55054H1.21582V7.30127Z" fill="#666666"/>
<path d="M1.21582 19.683C1.00836 19.683 0.84082 19.5155 0.84082 19.308V7.7431C0.84082 7.53564 1.00836 7.3681 1.21582 7.3681C1.42328 7.3681 1.59082 7.53564 1.59082 7.7431V19.308C1.59082 19.5155 1.42328 19.683 1.21582 19.683Z" fill="#666666"/>
<path d="M2.34082 19.683C2.13336 19.683 1.96582 19.5155 1.96582 19.308V7.7431C1.96582 7.53564 2.13336 7.3681 2.34082 7.3681C2.54828 7.3681 2.71582 7.53564 2.71582 7.7431V19.308C2.71582 19.5155 2.54828 19.683 2.34082 19.683Z" fill="#666666"/>
<path d="M22.5908 19.683C22.3834 19.683 22.2158 19.5155 22.2158 19.308V7.7431C22.2158 7.53564 22.3834 7.3681 22.5908 7.3681C22.7983 7.3681 22.9658 7.53564 22.9658 7.7431V19.308C22.9658 19.5155 22.7983 19.683 22.5908 19.683Z" fill="#666666"/>
<path d="M23.7158 19.683C23.5084 19.683 23.3408 19.5155 23.3408 19.308V7.7431C23.3408 7.53564 23.5084 7.3681 23.7158 7.3681C23.9233 7.3681 24.0908 7.53564 24.0908 7.7431V19.308C24.0908 19.5155 23.9233 19.683 23.7158 19.683Z" fill="#666666"/>
<path d="M2.34082 19.683H1.21582C1.00836 19.683 0.84082 19.5155 0.84082 19.308C0.84082 19.1006 1.00836 18.933 1.21582 18.933H2.34082C2.54828 18.933 2.71582 19.1006 2.71582 19.308C2.71582 19.5155 2.54828 19.683 2.34082 19.683Z" fill="#666666"/>
<path d="M23.7158 19.683H22.5908C22.3834 19.683 22.2158 19.5155 22.2158 19.308C22.2158 19.1006 22.3834 18.933 22.5908 18.933H23.7158C23.9233 18.933 24.0908 19.1006 24.0908 19.308C24.0908 19.5155 23.9233 19.683 23.7158 19.683Z" fill="#666666"/>
<path d="M22.5908 13.3058H2.34082C2.13336 13.3058 1.96582 13.1381 1.96582 12.9308C1.96582 12.7234 2.13336 12.5558 2.34082 12.5558H22.5908C22.7983 12.5558 22.9658 12.7234 22.9658 12.9308C22.9658 13.1381 22.7983 13.3058 22.5908 13.3058Z" fill="#666666"/>
<path d="M22.5908 14.4316H2.34082C2.13336 14.4316 1.96582 14.2639 1.96582 14.0566C1.96582 13.8491 2.13336 13.6816 2.34082 13.6816H22.5908C22.7983 13.6816 22.9658 13.8491 22.9658 14.0566C22.9658 14.2639 22.7983 14.4316 22.5908 14.4316Z" fill="#666666"/>
<path d="M3.84009 13.3066C3.63263 13.3066 3.46509 13.1389 3.46509 12.9316C3.46509 11.8976 4.30591 11.0566 5.33972 11.0566C5.547 11.0566 5.71472 11.2241 5.71472 11.4316C5.71472 11.6389 5.547 11.8066 5.33972 11.8066C4.71991 11.8066 4.21509 12.3112 4.21509 12.9316C4.21509 13.1389 4.04736 13.3066 3.84009 13.3066Z" fill="#666666"/>
<path d="M7.59082 13.3066C7.38336 13.3066 7.21582 13.1389 7.21582 12.9316C7.21582 12.3112 6.711 11.8066 6.09119 11.8066C5.88391 11.8066 5.71619 11.6389 5.71619 11.4316C5.71619 11.2241 5.88391 11.0566 6.09119 11.0566C7.125 11.0566 7.96582 11.8976 7.96582 12.9316C7.96582 13.1389 7.79828 13.3066 7.59082 13.3066Z" fill="#666666"/>
<path d="M4.21509 12.3147C4.00763 12.3147 3.84009 12.147 3.84009 11.9397V9.93158C3.84009 9.72412 4.00763 9.55658 4.21509 9.55658C4.42236 9.55658 4.59009 9.72412 4.59009 9.93158V11.9397C4.59009 12.147 4.42236 12.3147 4.21509 12.3147Z" fill="#666666"/>
<path d="M7.21436 12.3147C7.0069 12.3147 6.83936 12.147 6.83936 11.9397V9.93158C6.83936 9.72412 7.0069 9.55658 7.21436 9.55658C7.42163 9.55658 7.58936 9.72412 7.58936 9.93158V11.9397C7.58936 12.147 7.42163 12.3147 7.21436 12.3147Z" fill="#666666"/>
<path d="M4.96582 10.6823C4.75836 10.6823 4.59082 10.5146 4.59082 10.3073V9.18158C4.59082 8.97412 4.75836 8.80658 4.96582 8.80658C5.17328 8.80658 5.34082 8.97412 5.34082 9.18158V10.3073C5.34082 10.5146 5.17328 10.6823 4.96582 10.6823Z" fill="#666666"/>
<path d="M6.46582 9.55658H4.96582C4.75836 9.55658 4.59082 9.38885 4.59082 9.18158C4.59082 8.97412 4.75836 8.80658 4.96582 8.80658H6.46582C6.67328 8.80658 6.84082 8.97412 6.84082 9.18158C6.84082 9.38885 6.67328 9.55658 6.46582 9.55658Z" fill="#666666"/>
<path d="M6.46582 10.6823C6.25836 10.6823 6.09082 10.5146 6.09082 10.3073V9.18158C6.09082 8.97412 6.25836 8.80658 6.46582 8.80658C6.67328 8.80658 6.84082 8.97412 6.84082 9.18158V10.3073C6.84082 10.5146 6.67328 10.6823 6.46582 10.6823Z" fill="#666666"/>
<path d="M4.96582 10.3066H4.21509C4.00763 10.3066 3.84009 10.1389 3.84009 9.93158C3.84009 9.72412 4.00763 9.55658 4.21509 9.55658H4.96582C5.17328 9.55658 5.34082 9.72412 5.34082 9.93158C5.34082 10.1389 5.17328 10.3066 4.96582 10.3066Z" fill="#666666"/>
<path d="M7.21436 10.3066H6.46582C6.25836 10.3066 6.09082 10.1389 6.09082 9.93158C6.09082 9.72412 6.25836 9.55658 6.46582 9.55658H7.21436C7.42163 9.55658 7.58936 9.72412 7.58936 9.93158C7.58936 10.1389 7.42163 10.3066 7.21436 10.3066Z" fill="#666666"/>
<path d="M6.09119 11.8066H5.33972C5.13226 11.8066 4.96472 11.6389 4.96472 11.4316C4.96472 11.2241 5.13226 11.0566 5.33972 11.0566H6.09119C6.29865 11.0566 6.46619 11.2241 6.46619 11.4316C6.46619 11.6389 6.29865 11.8066 6.09119 11.8066Z" fill="#666666"/>
<path d="M8.71509 13.3066C8.50763 13.3066 8.34009 13.1389 8.34009 12.9316C8.34009 11.8976 9.18091 11.0566 10.2147 11.0566C10.422 11.0566 10.5897 11.2241 10.5897 11.4316C10.5897 11.6389 10.422 11.8066 10.2147 11.8066C9.59491 11.8066 9.09009 12.3112 9.09009 12.9316C9.09009 13.1389 8.92236 13.3066 8.71509 13.3066Z" fill="#666666"/>
<path d="M12.4658 13.3066C12.2584 13.3066 12.0908 13.1389 12.0908 12.9316C12.0908 12.3112 11.586 11.8066 10.9662 11.8066C10.7589 11.8066 10.5912 11.6389 10.5912 11.4316C10.5912 11.2241 10.7589 11.0566 10.9662 11.0566C12 11.0566 12.8408 11.8976 12.8408 12.9316C12.8408 13.1389 12.6733 13.3066 12.4658 13.3066Z" fill="#666666"/>
<path d="M9.09009 12.3147C8.88263 12.3147 8.71509 12.147 8.71509 11.9397V9.93158C8.71509 9.72412 8.88263 9.55658 9.09009 9.55658C9.29736 9.55658 9.46509 9.72412 9.46509 9.93158V11.9397C9.46509 12.147 9.29736 12.3147 9.09009 12.3147Z" fill="#666666"/>
<path d="M12.0894 12.3147C11.8819 12.3147 11.7144 12.147 11.7144 11.9397V9.93158C11.7144 9.72412 11.8819 9.55658 12.0894 9.55658C12.2966 9.55658 12.4644 9.72412 12.4644 9.93158V11.9397C12.4644 12.147 12.2966 12.3147 12.0894 12.3147Z" fill="#666666"/>
<path d="M9.84082 10.6823C9.63336 10.6823 9.46582 10.5146 9.46582 10.3073V9.18158C9.46582 8.97412 9.63336 8.80658 9.84082 8.80658C10.0483 8.80658 10.2158 8.97412 10.2158 9.18158V10.3073C10.2158 10.5146 10.0483 10.6823 9.84082 10.6823Z" fill="#666666"/>
<path d="M11.3408 9.55658H9.84082C9.63336 9.55658 9.46582 9.38885 9.46582 9.18158C9.46582 8.97412 9.63336 8.80658 9.84082 8.80658H11.3408C11.5483 8.80658 11.7158 8.97412 11.7158 9.18158C11.7158 9.38885 11.5483 9.55658 11.3408 9.55658Z" fill="#666666"/>
<path d="M11.3408 10.6823C11.1334 10.6823 10.9658 10.5146 10.9658 10.3073V9.18158C10.9658 8.97412 11.1334 8.80658 11.3408 8.80658C11.5483 8.80658 11.7158 8.97412 11.7158 9.18158V10.3073C11.7158 10.5146 11.5483 10.6823 11.3408 10.6823Z" fill="#666666"/>
<path d="M9.84082 10.3066H9.09009C8.88263 10.3066 8.71509 10.1389 8.71509 9.93158C8.71509 9.72412 8.88263 9.55658 9.09009 9.55658H9.84082C10.0483 9.55658 10.2158 9.72412 10.2158 9.93158C10.2158 10.1389 10.0483 10.3066 9.84082 10.3066Z" fill="#666666"/>
<path d="M12.0894 10.3066H11.3408C11.1334 10.3066 10.9658 10.1389 10.9658 9.93158C10.9658 9.72412 11.1334 9.55658 11.3408 9.55658H12.0894C12.2966 9.55658 12.4644 9.72412 12.4644 9.93158C12.4644 10.1389 12.2966 10.3066 12.0894 10.3066Z" fill="#666666"/>
<path d="M10.9662 11.8066H10.2147C10.0073 11.8066 9.83972 11.6389 9.83972 11.4316C9.83972 11.2241 10.0073 11.0566 10.2147 11.0566H10.9662C11.1736 11.0566 11.3412 11.2241 11.3412 11.4316C11.3412 11.6389 11.1736 11.8066 10.9662 11.8066Z" fill="#666666"/>
<path d="M12.4737 18.9323C12.2662 18.9323 12.0987 18.7646 12.0987 18.5573C12.0987 17.9366 12.6039 17.4316 13.2244 17.4316C13.4319 17.4316 13.5994 17.5991 13.5994 17.8066C13.5994 18.0139 13.4319 18.1816 13.2244 18.1816C13.0172 18.1816 12.8487 18.3499 12.8487 18.5573C12.8487 18.7646 12.6808 18.9323 12.4737 18.9323Z" fill="#666666"/>
<path d="M16.2248 18.9323C16.0175 18.9323 15.8498 18.7646 15.8498 18.5573C15.8498 18.3502 15.6819 18.1823 15.4748 18.1823C15.2675 18.1823 15.0998 18.0146 15.0998 17.8073C15.0998 17.5999 15.2675 17.4323 15.4748 17.4323C16.0952 17.4323 16.5998 17.937 16.5998 18.5573C16.5998 18.7646 16.4323 18.9323 16.2248 18.9323Z" fill="#666666"/>
<path d="M16.2248 19.683H12.4737C12.2662 19.683 12.0987 19.5155 12.0987 19.308C12.0987 19.1006 12.2662 18.933 12.4737 18.933H16.2252C16.4326 18.933 16.6002 19.1006 16.6002 19.308C16.6002 19.5155 16.4323 19.683 16.2248 19.683Z" fill="#666666"/>
<path d="M15.5048 18.1816H13.194C12.9868 18.1816 12.819 18.0139 12.819 17.8066C12.819 17.5991 12.9868 17.4316 13.194 17.4316H15.5048C15.7123 17.4316 15.8798 17.5991 15.8798 17.8066C15.8798 18.0139 15.7123 18.1816 15.5048 18.1816Z" fill="#666666"/>
<path d="M13.2237 18.1816C13.0162 18.1816 12.8487 18.0139 12.8487 17.8066V15.5573C12.8487 15.3499 13.0162 15.1823 13.2237 15.1823C13.4312 15.1823 13.5987 15.3499 13.5987 15.5573V17.8066C13.5987 18.0139 13.4312 18.1816 13.2237 18.1816Z" fill="#666666"/>
<path d="M15.4752 18.1823C15.2679 18.1823 15.1002 18.0146 15.1002 17.8073V15.5573C15.1002 15.3499 15.2679 15.1823 15.4752 15.1823C15.6826 15.1823 15.8502 15.3499 15.8502 15.5573V17.8073C15.8502 18.0146 15.6826 18.1823 15.4752 18.1823Z" fill="#666666"/>
<path d="M12.4737 19.683C12.2662 19.683 12.0987 19.5155 12.0987 19.308V18.5573C12.0987 18.3499 12.2662 18.1823 12.4737 18.1823C12.6812 18.1823 12.8487 18.3499 12.8487 18.5573V19.308C12.8487 19.5155 12.6808 19.683 12.4737 19.683Z" fill="#666666"/>
<path d="M16.2248 19.683C16.0175 19.683 15.8498 19.5155 15.8498 19.308V18.5573C15.8498 18.3499 16.0175 18.1823 16.2248 18.1823C16.4323 18.1823 16.5998 18.3499 16.5998 18.5573V19.308C16.5998 19.5155 16.4323 19.683 16.2248 19.683Z" fill="#666666"/>
<path d="M15.4752 15.9323H13.2237C13.0162 15.9323 12.8487 15.7646 12.8487 15.5573C12.8487 15.3499 13.0162 15.1823 13.2237 15.1823H15.4752C15.6826 15.1823 15.8502 15.3499 15.8502 15.5573C15.8502 15.7646 15.6826 15.9323 15.4752 15.9323Z" fill="#666666"/>
<path d="M15.8498 17.0573H12.8487C12.6412 17.0573 12.4737 16.8896 12.4737 16.6823C12.4737 16.4749 12.6412 16.3073 12.8487 16.3073H15.8498C16.0573 16.3073 16.2248 16.4749 16.2248 16.6823C16.2248 16.8896 16.0573 17.0573 15.8498 17.0573Z" fill="#666666"/>
<path d="M17.3487 18.9323C17.1412 18.9323 16.9737 18.7646 16.9737 18.5573C16.9737 17.9366 17.4789 17.4316 18.0994 17.4316C18.3069 17.4316 18.4744 17.5991 18.4744 17.8066C18.4744 18.0139 18.3069 18.1816 18.0994 18.1816C17.8922 18.1816 17.7237 18.3499 17.7237 18.5573C17.7237 18.7646 17.5558 18.9323 17.3487 18.9323Z" fill="#666666"/>
<path d="M21.0998 18.9323C20.8925 18.9323 20.7248 18.7646 20.7248 18.5573C20.7248 18.3502 20.5569 18.1823 20.3498 18.1823C20.1425 18.1823 19.9748 18.0146 19.9748 17.8073C19.9748 17.5999 20.1425 17.4323 20.3498 17.4323C20.9702 17.4323 21.4748 17.937 21.4748 18.5573C21.4748 18.7646 21.3073 18.9323 21.0998 18.9323Z" fill="#666666"/>
<path d="M21.0998 19.683H17.3487C17.1412 19.683 16.9737 19.5155 16.9737 19.308C16.9737 19.1006 17.1412 18.933 17.3487 18.933H21.1002C21.3076 18.933 21.4752 19.1006 21.4752 19.308C21.4752 19.5155 21.3073 19.683 21.0998 19.683Z" fill="#666666"/>
<path d="M20.3798 18.1816H18.069C17.8618 18.1816 17.694 18.0139 17.694 17.8066C17.694 17.5991 17.8618 17.4316 18.069 17.4316H20.3798C20.5873 17.4316 20.7548 17.5991 20.7548 17.8066C20.7548 18.0139 20.5873 18.1816 20.3798 18.1816Z" fill="#666666"/>
<path d="M18.0987 18.1816C17.8912 18.1816 17.7237 18.0139 17.7237 17.8066V15.5573C17.7237 15.3499 17.8912 15.1823 18.0987 15.1823C18.3062 15.1823 18.4737 15.3499 18.4737 15.5573V17.8066C18.4737 18.0139 18.3062 18.1816 18.0987 18.1816Z" fill="#666666"/>
<path d="M20.3502 18.1823C20.1429 18.1823 19.9752 18.0146 19.9752 17.8073V15.5573C19.9752 15.3499 20.1429 15.1823 20.3502 15.1823C20.5576 15.1823 20.7252 15.3499 20.7252 15.5573V17.8073C20.7252 18.0146 20.5576 18.1823 20.3502 18.1823Z" fill="#666666"/>
<path d="M17.3487 19.683C17.1412 19.683 16.9737 19.5155 16.9737 19.308V18.5573C16.9737 18.3499 17.1412 18.1823 17.3487 18.1823C17.5562 18.1823 17.7237 18.3499 17.7237 18.5573V19.308C17.7237 19.5155 17.5558 19.683 17.3487 19.683Z" fill="#666666"/>
<path d="M21.0998 19.683C20.8925 19.683 20.7248 19.5155 20.7248 19.308V18.5573C20.7248 18.3499 20.8925 18.1823 21.0998 18.1823C21.3073 18.1823 21.4748 18.3499 21.4748 18.5573V19.308C21.4748 19.5155 21.3073 19.683 21.0998 19.683Z" fill="#666666"/>
<path d="M20.3502 15.9323H18.0987C17.8912 15.9323 17.7237 15.7646 17.7237 15.5573C17.7237 15.3499 17.8912 15.1823 18.0987 15.1823H20.3502C20.5576 15.1823 20.7252 15.3499 20.7252 15.5573C20.7252 15.7646 20.5576 15.9323 20.3502 15.9323Z" fill="#666666"/>
<path d="M20.7248 17.0573H17.7237C17.5162 17.0573 17.3487 16.8896 17.3487 16.6823C17.3487 16.4749 17.5162 16.3073 17.7237 16.3073H20.7248C20.9323 16.3073 21.0998 16.4749 21.0998 16.6823C21.0998 16.8896 20.9323 17.0573 20.7248 17.0573Z" fill="#666666"/>
</g>
<defs>
<clipPath id="clip0_309_270">
<rect width="24" height="24" fill="white" transform="translate(0.46582 0.738037)"/>
</clipPath>
</defs>
</svg>
