<svg width="25" height="25" viewBox="0 0 25 25" fill="none" xmlns="http://www.w3.org/2000/svg">
<g clip-path="url(#clip0_309_223)">
<path d="M0.471344 24.7522H10.3573V19.083H0.471344V24.7522ZM2.6335 20.5511H8.242V21.9567H2.6335V20.5511Z" fill="#666666"/>
<path d="M0.471344 17.6774H10.3573V12.1019H0.471344V17.6774ZM2.6335 13.5975H8.242V15.0031H2.6335V13.5975Z" fill="#666666"/>
<path d="M11.7632 24.7522H24.4604V12.1019H11.7632V24.7522ZM20.1967 13.5975H21.6023V15.0378H20.1967V13.5975ZM17.3856 13.5975H18.7912V15.0378H17.3856V13.5975ZM14.5744 13.5975H15.98V15.0378H14.5744V13.5975ZM14.5744 16.2952H21.6023V21.9411H14.5744V16.2952Z" fill="#666666"/>
<path d="M20.1967 3.99271V0.752197H15.98V3.99506L11.7632 6.8062V9.29071H24.4604V6.80385L20.1967 3.99271Z" fill="#666666"/>
</g>
<defs>
<clipPath id="clip0_309_223">
<rect width="24" height="24" fill="white" transform="translate(0.46582 0.752197)"/>
</clipPath>
</defs>
</svg>
