<svg width="40" height="41" viewBox="0 0 40 41" fill="none" xmlns="http://www.w3.org/2000/svg">
<circle cx="20" cy="20.7456" r="20" fill="#F4F6F6"/>
<g clip-path="url(#clip0_309_158)">
<path d="M15.5551 21.3699L22.6753 28.49C22.84 28.6548 23.0598 28.7456 23.2942 28.7456C23.5286 28.7456 23.7484 28.6548 23.9131 28.49L24.4375 27.9658C24.7787 27.6242 24.7787 27.069 24.4375 26.7279L18.4585 20.7489L24.4441 14.7633C24.6088 14.5985 24.6997 14.3788 24.6997 14.1445C24.6997 13.91 24.6088 13.6902 24.4441 13.5253L23.9197 13.0012C23.7549 12.8364 23.5352 12.7456 23.3008 12.7456C23.0664 12.7456 22.8466 12.8364 22.6819 13.0012L15.5551 20.1278C15.39 20.2931 15.2993 20.5139 15.2999 20.7485C15.2993 20.9841 15.39 21.2047 15.5551 21.3699Z" fill="#D1CECE"/>
</g>
<defs>
<clipPath id="clip0_309_158">
<rect width="16" height="16" fill="white" transform="matrix(-1 0 0 -1 28 28.7456)"/>
</clipPath>
</defs>
</svg>
